# xmcd CD database file
#
# Track frame offsets:
#	150
#	22766
#	40475
#	66921
#	94558
#	122960
#	139723
#	167711
#	194697
#
# Disc length: 2853 seconds
#
# Revision: 0
# Processed by: cddbd v1.5.2PL0 Copyright (c) Steve Scherf et al.
# Submitted via: CDex 1.51
#
DISCID=7b0b2309
DTITLE=the catwalk special trio and the catwalk all stars - THE CATWALK 25th ANNIVERSARY
DYEAR=2007
DGENRE=Jazz
TTITLE0=MARIONETTE (Lars Jansson)
TTITLE1=THE INNER ROOM (Lars Jansson)
TTITLE2=Harf and Harf (Osamu Kawakami)
TTITLE3=IT COULD HAPPEN TO YOU (Jams Van Heusen)
TTITLE4=BLUE BOSSA (Kenny Dorham)
TTITLE5=CUTE (Neal Hefti)
TTITLE6=GIVING - RECEIVING (Lars Jansson)
TTITLE7=THE CAT WALK (Osamu Kawakami)
TTITLE8=LOVE BALLAD (Hirotaka Izumi)
EXTD=YEAR: 2007
EXTT0=
EXTT1=
EXTT2=
EXTT3=
EXTT4=
EXTT5=
EXTT6=
EXTT7=
EXTT8=
PLAYORDER=
